# File created by Blade
# Date/Time:  Wed Jan 21 17:21:31 2015
# Frame Rate: 120.000 fps
#------------------------------------------------------
:FULLY-SPECIFIED
:DEGREES
1115
root 20.203519 18.437830 -3.966336 -179.951422 9.438400 -195.860791
Spine 67.280564 18.995667 8.561332
Head -36.813619 -15.304851 1.770173
LeftShoulder 4.508837 -26.359789 -2.537417
LeftArm -4.669639 14.444102 -58.687408
LeftForeArm -31.146230 -0.000000 57.019955
LeftHand -1.070492 -0.000000 7.949086
LeftHandThumb1 -26.253704 0.000000 33.147579
RightShoulder 16.805403 5.796839 -5.310657
RightArm 26.549047 24.621470 43.963042
RightForeArm 0.371486 0.000000 7.255425
RightHand -4.589807 -0.000000 1.488705
RightHandThumb1 -24.326973 -0.000000 -32.862282
LeftUpLeg -87.628254 0.589000 -19.866973
LeftLeg 58.672585 -0.000000 -0.000000
LeftFoot -10.489144 30.763496 -3.629633
LeftToeBase 17.801078 -0.000000 -0.000000
RightUpLeg -17.804818 -4.288146 3.724244
RightLeg 108.854629 -0.000000 -0.000000
RightFoot 27.391724 -19.849185 6.338777
RightToeBase 38.520361 -0.000000 -0.000000
1116
root 20.186555 18.439144 -3.897480 -180.127232 9.318315 -196.053861
Spine 67.761311 18.803044 8.932318
Head -37.445061 -15.612985 1.895336
LeftShoulder 4.183783 -26.248016 -2.361317
LeftArm -5.476283 13.939386 -58.381496
LeftForeArm -31.414071 -0.000000 58.843612
LeftHand -1.098563 -0.000000 8.427747
LeftHandThumb1 -26.253704 0.000000 33.147579
RightShoulder 16.844555 5.699999 -5.327452
RightArm 26.043484 24.530864 44.022129
RightForeArm 0.347606 -0.000000 7.190078
RightHand -4.373499 -0.000000 1.405505
RightHandThumb1 -24.326973 -0.000000 -32.862282
LeftUpLeg -88.136787 0.638482 -20.308295
LeftLeg 60.568723 -0.000000 -0.000000
LeftFoot -10.929142 30.850825 -3.607283
LeftToeBase 17.222613 -0.000000 -0.000000
RightUpLeg -17.896890 -4.377365 3.522432
RightLeg 108.973019 -0.000000 -0.000000
RightFoot 27.915427 -19.872555 6.352492
RightToeBase 38.612351 -0.000000 -0.000000
1117
root 20.167966 18.437851 -3.819804 -180.194332 9.199903 -196.232384
Spine 68.200587 18.701919 9.459820
Head -38.077256 -16.052264 2.107380
LeftShoulder 4.030382 -25.970841 -2.261768
LeftArm -6.098906 13.288418 -58.060011
LeftForeArm -31.379064 -0.000000 60.838377
LeftHand -1.208064 -0.000000 9.005002
LeftHandThumb1 -26.253704 0.000000 33.147579
RightShoulder 16.662071 5.554422 -5.381322
RightArm 25.580698 24.530879 44.150071
RightForeArm -0.092696 0.000000 7.401156
RightHand -4.131848 -0.000000 1.384008
RightHandThumb1 -24.326973 -0.000000 -32.862282
LeftUpLeg -88.738847 0.645779 -20.732685
LeftLeg 62.426493 -0.000000 -0.000000
LeftFoot -11.549585 31.008173 -3.906483
LeftToeBase 17.429775 -0.000000 -0.000000
RightUpLeg -18.140540 -4.428812 3.375352
RightLeg 109.121529 -0.000000 -0.000000
RightFoot 28.446094 -19.914292 6.371308
RightToeBase 38.715597 -0.000000 -0.000000
1118
root 20.145266 18.429892 -3.741989 -180.241841 9.106915 -196.429129
Spine 68.583926 18.574155 9.843398
Head -38.665544 -16.287146 2.329869
LeftShoulder 3.786026 -25.841149 -2.094575
LeftArm -6.894012 12.668545 -57.800534
LeftForeArm -31.062527 0.000000 63.025809
LeftHand -1.312496 -0.000000 9.863910
LeftHandThumb1 -26.253704 0.000000 33.147579
RightShoulder 16.467179 5.377680 -5.536414
RightArm 25.293631 24.558023 44.465494
RightForeArm -1.183886 -0.000000 7.774230
RightHand -3.701796 -0.000000 1.266481
RightHandThumb1 -24.326973 -0.000000 -32.862282
LeftUpLeg -89.378788 0.661435 -21.163285
LeftLeg 64.324907 -0.000000 -0.000000
LeftFoot -12.081601 31.150285 -4.022553
LeftToeBase 16.880118 -0.000000 -0.000000
RightUpLeg -18.408873 -4.483359 3.178209
RightLeg 109.309687 -0.000000 -0.000000
RightFoot 28.940332 -19.828475 6.337660
RightToeBase 38.831447 -0.000000 -0.000000
1119
root 20.121383 18.420796 -3.660623 -180.213268 9.055939 -196.636894
Spine 68.903287 18.514332 10.157395
Head -39.239008 -16.487575 2.632542
LeftShoulder 3.527727 -25.671624 -1.892320
LeftArm -7.644332 12.030877 -57.541445
LeftForeArm -30.650722 -0.000000 65.353414
LeftHand -1.364760 -0.000000 10.322097
LeftHandThumb1 -26.253704 0.000000 33.147579
RightShoulder 16.209068 5.143304 -5.666029
RightArm 25.138730 24.343291 44.694180
RightForeArm -1.931469 0.000000 8.288894
RightHand -3.268572 0.000000 0.443403
RightHandThumb1 -24.326973 -0.000000 -32.862282
LeftUpLeg -90.106482 0.700210 -21.605886
LeftLeg 66.240453 -0.000000 -0.000000
LeftFoot -12.740976 31.320299 -4.178362
LeftToeBase 17.157238 -0.000000 -0.000000
RightUpLeg -18.776811 -4.498030 2.976402
RightLeg 109.509448 -0.000000 -0.000000
RightFoot 29.529748 -19.784503 6.322890
RightToeBase 38.951327 -0.000000 -0.000000
1120
root 20.083446 18.416128 -3.584551 -180.198300 8.895882 -196.888588
Spine 69.202823 18.212974 10.281252
Head -39.861822 -16.543980 2.877824
LeftShoulder 3.030137 -25.461393 -1.713975
LeftArm -8.260047 11.519563 -57.241679
LeftForeArm -30.275139 0.000000 67.888406
LeftHand -1.440777 -0.000000 11.434609
LeftHandThumb1 -26.253704 0.000000 33.147579
RightShoulder 16.111569 5.032831 -5.862407
RightArm 24.922314 24.119067 44.931435
RightForeArm -3.183526 -0.000000 8.962277
RightHand -3.329803 0.000000 -0.479472
RightHandThumb1 -24.326973 -0.000000 -32.862282
LeftUpLeg -90.726674 0.582021 -22.052206
LeftLeg 68.063006 -0.000000 -0.000000
LeftFoot -13.493968 31.639291 -4.544584
LeftToeBase 17.259534 -0.000000 -0.000000
RightUpLeg -19.129830 -4.617304 2.666128
RightLeg 109.678408 -0.000000 -0.000000
RightFoot 30.346159 -19.801839 6.416637
RightToeBase 39.066462 -0.000000 -0.000000
1121
root 20.054155 18.408401 -3.500336 -180.116352 8.857237 -197.130348
Spine 69.478713 18.098912 10.429873
Head -40.418882 -16.604165 3.191209
LeftShoulder 2.669711 -25.326105 -1.489631
LeftArm -8.995880 10.943405 -57.052964
LeftForeArm -29.407286 -0.000000 70.539512
LeftHand -1.529487 0.000000 12.435554
LeftHandThumb1 -26.253704 0.000000 33.147579
RightShoulder 15.917314 4.626326 -5.969629
RightArm 25.076682 23.844902 44.927654
RightForeArm -3.974368 -0.000000 9.457638
RightHand -3.434832 -0.000000 -1.806896
RightHandThumb1 -24.326973 -0.000000 -32.862282
LeftUpLeg -91.453821 0.570975 -22.476543
LeftLeg 69.927801 -0.000000 -0.000000
LeftFoot -14.198558 31.875798 -4.858360
LeftToeBase 17.227988 -0.000000 -0.000000
RightUpLeg -19.567297 -4.549889 2.408001
RightLeg 109.892920 -0.000000 -0.000000
RightFoot 30.857944 -19.332298 6.215141
RightToeBase 39.267605 -0.000000 -0.000000
